<?xml version="1.0" standalone="no"?>
<!DOCTYPE svg PUBLIC "-//W3C//DTD SVG 20010904//EN"
 "http://www.w3.org/TR/2001/REC-SVG-20010904/DTD/svg10.dtd">
<svg version="1.0" xmlns="http://www.w3.org/2000/svg"
 width="1920.000000pt" height="1920.000000pt" viewBox="0 0 1920.000000 1920.000000"
 preserveAspectRatio="xMidYMid meet">
<metadata>
Created by potrace 1.16, written by Peter Selinger 2001-2019
</metadata>
<g transform="translate(0.000000,1920.000000) scale(0.100000,-0.100000)"
fill="#000000" stroke="none">
<path d="M10439 14092 c-279 -977 -855 -2939 -860 -2930 -4 7 -184 677 -400
1488 -216 811 -395 1479 -399 1483 -4 5 -207 -144 -451 -330 l-444 -339 -3
-3925 -2 -3925 407 -256 408 -256 5 2971 c3 1635 9 2963 13 2952 5 -11 99
-256 209 -545 110 -289 204 -533 209 -543 9 -16 39 -17 462 -15 l451 3 219
720 c120 396 221 727 225 735 4 8 8 -1420 10 -3174 2 -2544 5 -3187 15 -3183
6 3 206 118 442 255 l430 250 3 3970 2 3971 -127 98 c-321 248 -779 600 -789
606 -7 4 -20 -26 -35 -81z"/>
<path d="M11990 12413 l0 -689 408 -299 c224 -164 417 -307 430 -318 l22 -20
0 -2434 c0 -1338 3 -2433 6 -2433 8 0 984 609 1007 628 16 14 17 113 17 1809
0 986 2 1793 6 1793 6 0 749 -524 777 -548 16 -14 17 17 17 649 l0 664 -157
111 c-87 61 -426 300 -753 531 -327 230 -855 602 -1172 826 -318 224 -584 410
-593 413 -13 6 -15 -68 -15 -683z"/>
<path d="M6068 12073 c-662 -510 -1281 -987 -1375 -1060 l-173 -134 0 -1577 0
-1577 164 -102 c89 -56 291 -183 449 -282 157 -98 288 -177 291 -173 3 3 6
387 6 854 l0 848 925 0 925 0 0 2065 c0 1136 -2 2065 -4 2065 -2 0 -546 -417
-1208 -927z m292 -1558 l0 -615 -465 0 -465 0 2 262 3 262 455 352 c250 194
458 353 463 353 4 1 7 -276 7 -614z"/>
</g>
</svg>
